<svg id="Layer_1" data-name="Layer 1" xmlns="http://www.w3.org/2000/svg" viewBox="0 0 352.67 71.5"><defs><style>.cls-1{fill:#fff;}</style></defs><title>kiosk-white</title><path class="cls-1" d="M371,285.13l-10.86-21.08a24,24,0,0,0-2.47-4,6.84,6.84,0,0,0-2.57-1.93,13.14,13.14,0,0,0-4.35-1c-1.94-.17-4.51-.25-7.63-.25h-4.5v28.2h-15.8v-71.5h15.8v28.6h4.5c2.8,0,5.11-.08,6.87-.24a10.83,10.83,0,0,0,3.84-1,6.62,6.62,0,0,0,2.35-2,26.73,26.73,0,0,0,2.45-4.13l10.87-21.31h17.17l-12.06,23.9a39.83,39.83,0,0,1-5.18,7.91,18.92,18.92,0,0,1-3.55,3.16l.45.25a18.86,18.86,0,0,1,3.75,2.92,24.86,24.86,0,0,1,3.22,4c1,1.49,2,3.25,3,5.22l12.4,24.12Z" transform="translate(-322.86 -213.63)"/><path class="cls-1" d="M336.66,215.63v28.6h6.5q4.3,0,7-.25a12.67,12.67,0,0,0,4.55-1.15,8.6,8.6,0,0,0,3.05-2.55,28.78,28.78,0,0,0,2.65-4.45l10.3-20.2h12.7l-10.6,21a37.45,37.45,0,0,1-4.9,7.5,18.39,18.39,0,0,1-6.8,4.8,16,16,0,0,1,4.2,1.65,16.49,16.49,0,0,1,3.35,2.6,23.26,23.26,0,0,1,3,3.7q1.39,2.16,2.9,5.05l10.9,21.2h-13.2l-10.3-20a25.3,25.3,0,0,0-2.7-4.3,9,9,0,0,0-3.3-2.5,15.42,15.42,0,0,0-5-1.15c-2-.16-4.6-.25-7.8-.25h-6.5v28.2h-11.8v-67.5Z" transform="translate(-322.86 -213.63)"/><rect class="cls-1" x="79.8" width="15.8" height="71.5"/><path class="cls-1" d="M416.46,215.63v67.5h-11.8v-67.5Z" transform="translate(-322.86 -213.63)"/><path class="cls-1" d="M469.76,285.13c-10.39,0-18.5-3-24.1-8.92s-8.4-14.87-8.4-26.68,2.82-20.91,8.39-26.86,13.71-9,24.11-9H479c10.39,0,18.51,3,24.11,9s8.39,15,8.39,26.86-2.83,20.78-8.4,26.68-13.71,8.92-24.1,8.92Zm0-55.7c-5.89,0-10.18,1.52-12.73,4.5s-4,8.33-4,15.6,1.32,12.39,3.91,15.4,6.83,4.4,12.79,4.4H479c5.83,0,10.08-1.5,12.64-4.46s4-8.24,4-15.44-1.32-12.43-3.93-15.51-6.78-4.49-12.67-4.49Z" transform="translate(-322.86 -213.63)"/><path class="cls-1" d="M479,215.63q14.81,0,22.65,8.4t7.85,25.5q0,17-7.85,25.3T479,283.13h-9.2q-14.81,0-22.65-8.3t-7.85-25.3q0-17.1,7.85-25.5t22.65-8.4Zm-9.2,11.8q-9.79,0-14.25,5.2t-4.45,16.9q0,11.61,4.4,16.7t14.3,5.1H479q9.71,0,14.15-5.15t4.45-16.75q0-11.6-4.4-16.8t-14.2-5.2Z" transform="translate(-322.86 -213.63)"/><path class="cls-1" d="M528.46,285.13v-15.8h40c2.62,0,4.5-.58,5.6-1.73a6.42,6.42,0,0,0,1.7-4.67,8.28,8.28,0,0,0-.41-2.54,4.29,4.29,0,0,0-1.18-1.86,6.9,6.9,0,0,0-2.51-1.41,14.39,14.39,0,0,0-4.5-.59h-15.7a32.7,32.7,0,0,1-11.84-1.84,19.15,19.15,0,0,1-7.52-5,17.83,17.83,0,0,1-3.82-7.09,28.58,28.58,0,0,1-1-7.53,27,27,0,0,1,1.25-8.36,17.45,17.45,0,0,1,4.17-6.94,19.32,19.32,0,0,1,7.3-4.53,30.36,30.36,0,0,1,10.28-1.57h36.2v15.8h-36.6c-2.48,0-4.24.55-5.24,1.62a6.1,6.1,0,0,0-1.56,4.38,7.9,7.9,0,0,0,.36,2.36,4.21,4.21,0,0,0,1.1,1.78,6,6,0,0,0,2.28,1.32,13.58,13.58,0,0,0,4.26.54h15.8a33.16,33.16,0,0,1,12,1.89,20.53,20.53,0,0,1,7.69,5.07,17.07,17.07,0,0,1,3.95,7.23,30,30,0,0,1,1,7.71,27.05,27.05,0,0,1-1.3,8.53,18.06,18.06,0,0,1-4.27,7,20,20,0,0,1-7.39,4.63,30.49,30.49,0,0,1-10.54,1.62Z" transform="translate(-322.86 -213.63)"/><path class="cls-1" d="M584.46,215.63v11.8h-34.6q-4.61,0-6.7,2.25a8.1,8.1,0,0,0-2.1,5.75,9.87,9.87,0,0,0,.45,2.95,6.18,6.18,0,0,0,1.6,2.6,7.65,7.65,0,0,0,3,1.8,15.21,15.21,0,0,0,4.9.65h15.8a31.1,31.1,0,0,1,11.3,1.75,18.56,18.56,0,0,1,7,4.55,15.2,15.2,0,0,1,3.5,6.4,28.26,28.26,0,0,1,.95,7.2,24.84,24.84,0,0,1-1.2,7.9,16,16,0,0,1-3.8,6.25,17.83,17.83,0,0,1-6.65,4.15,28.51,28.51,0,0,1-9.85,1.5h-37.6v-11.8h38q4.8,0,7-2.35a8.37,8.37,0,0,0,2.25-6.05,10.37,10.37,0,0,0-.5-3.15,6.53,6.53,0,0,0-1.7-2.7,8.87,8.87,0,0,0-3.25-1.85,16.38,16.38,0,0,0-5.15-.7h-15.7a30.4,30.4,0,0,1-11.1-1.7,17,17,0,0,1-6.75-4.5,15.51,15.51,0,0,1-3.4-6.3,26.29,26.29,0,0,1-1-7,24.94,24.94,0,0,1,1.15-7.75,15.47,15.47,0,0,1,3.7-6.15,17.28,17.28,0,0,1,6.55-4,28.36,28.36,0,0,1,9.6-1.45Z" transform="translate(-322.86 -213.63)"/><path class="cls-1" d="M657.84,285.13,647,264.05a24,24,0,0,0-2.48-4,6.73,6.73,0,0,0-2.56-1.93,13.14,13.14,0,0,0-4.35-1c-2-.17-4.52-.25-7.63-.25h-4.5v28.2h-15.8v-71.5h15.8v28.6H630c2.79,0,5.1-.08,6.87-.24a10.72,10.72,0,0,0,3.83-1,6.53,6.53,0,0,0,2.35-2,26.67,26.67,0,0,0,2.46-4.13l10.86-21.31h17.18l-12.07,23.9a39.38,39.38,0,0,1-5.17,7.91,18.68,18.68,0,0,1-3.56,3.16l.46.25a19.15,19.15,0,0,1,3.75,2.92,24.29,24.29,0,0,1,3.21,4c1,1.49,2,3.25,3,5.22l12.4,24.12Z" transform="translate(-322.86 -213.63)"/><path class="cls-1" d="M623.46,215.63v28.6H630q4.29,0,7-.25a12.67,12.67,0,0,0,4.55-1.15,8.69,8.69,0,0,0,3.05-2.55,29.59,29.59,0,0,0,2.65-4.45l10.3-20.2h12.7l-10.6,21a37.88,37.88,0,0,1-4.9,7.5,18.47,18.47,0,0,1-6.8,4.8,16,16,0,0,1,4.2,1.65,16.77,16.77,0,0,1,3.35,2.6,23.83,23.83,0,0,1,3,3.7q1.39,2.16,2.9,5.05l10.9,21.2h-13.2l-10.3-20a26.62,26.62,0,0,0-2.7-4.3,9,9,0,0,0-3.3-2.5,15.48,15.48,0,0,0-5-1.15c-2-.16-4.6-.25-7.8-.25h-6.5v28.2h-11.8v-67.5Z" transform="translate(-322.86 -213.63)"/></svg>